<?xml version="1.0" encoding="UTF-8"?>
<svg width="46px" height="86px" viewBox="0 0 46 86" version="1.1" xmlns="http://www.w3.org/2000/svg" xmlns:xlink="http://www.w3.org/1999/xlink">
    <title>DFA0C848-D565-44DC-A0F9-5A91D0002477</title>
    <g id="ðŸŒ-Agree-landingpage" stroke="none" stroke-width="1" fill="none" fill-rule="evenodd">
        <g id="09-agreelanding-tentang-agree" transform="translate(-698.000000, -681.000000)" fill="#2A844E">
            <g id="section-01" transform="translate(120.000000, 681.000000)">
                <g id="Group-5" transform="translate(104.000000, 0.000000)">
                    <path d="M496.67621,72.5974539 C497.601249,72.5974539 498.351038,73.3418628 498.351038,74.2596271 L498.351038,84.3371895 C498.351038,85.2555911 497.601249,86 496.67621,86 L496.292329,86 C495.367932,86 494.618143,85.2555911 494.618143,84.3371895 L494.618143,74.2596271 C494.618143,73.3418628 495.367932,72.5974539 496.292329,72.5974539 L496.67621,72.5974539 Z M474.918471,36.9047701 L493.991864,57.5678519 C494.545218,58.1593 494.893793,58.5518992 495.115905,58.8686554 L495.115905,69.7951497 L494.66141,69.7301414 C494.402065,69.6912639 494.386659,69.6778798 493.848711,69.5440392 L493.755629,69.5198204 L493.79222,69.5300178 C490.573521,69.1323199 487.456248,67.9188315 484.675996,65.9781423 C481.895743,64.0374531 479.519915,61.4180007 477.71734,58.3046127 C475.915408,55.1912246 474.730382,51.6610186 474.247,47.9631931 C473.762975,44.2647303 473.992149,40.4897871 474.918471,36.9047701 Z M514.488764,24.8704577 C516.488415,29.0430988 518.070161,33.4413569 519.206399,37.9887518 C519.458682,39.1136504 519.631365,40.2576692 519.725088,41.4112479 C520.091637,43.5526981 520.091637,45.7508711 519.725088,47.8923213 C518.700548,54.3032876 515.432419,60.017008 510.619777,63.8110713 C506.930534,66.7351704 502.596139,68.5184375 498.069161,68.9798691 L498.069161,42.5794855 C498.223227,42.2945961 498.447907,42.0090694 498.778508,41.6700065 L514.488764,24.8704577 Z M484.981817,14.4408945 L495.11552,25.2482069 L495.11552,52.6192538 L476.1519,32.1059461 C478.380724,25.7944042 481.350991,19.8525174 484.981817,14.4408945 Z M498.160445,0 C503.518739,6.54225762 508.29479,13.673414 512.417986,21.2889461 L498.068648,36.904324 L498.160445,0 Z M495.115584,0.391770654 L495.115584,20.82095 L486.914128,11.8364195 C489.446591,7.83267253 492.187685,4.01439046 495.115584,0.391770654 Z" id="image/logo/agree"></path>
                </g>
            </g>
        </g>
    </g>
</svg>