<svg width="322" height="382" viewBox="0 0 322 382" fill="none" xmlns="http://www.w3.org/2000/svg">
<g opacity="0.5">
<circle opacity="0.3" cx="204" cy="178" r="204" fill="#74B816"/>
<circle opacity="0.3" cx="203.518" cy="177.517" r="169.678" fill="#2983C6"/>
<circle opacity="0.3" cx="204.002" cy="178" r="130.521" fill="#2983C6"/>
<circle opacity="0.3" cx="203.999" cy="178" r="94.7488" fill="#2983C6"/>
<ellipse opacity="0.3" cx="203.518" cy="178.483" rx="59.4597" ry="59.4597" fill="#1EA44F"/>
</g>
<path fill-rule="evenodd" clip-rule="evenodd" d="M217.281 164.543C213.988 158.635 210.174 153.103 205.894 148.028L205.821 176.656L217.281 164.543ZM203.462 148.332V164.179L196.912 157.21C198.935 154.104 201.124 151.142 203.462 148.332ZM203.462 167.613L195.369 159.231C192.469 163.428 190.097 168.038 188.317 172.933L203.462 188.846V167.613ZM215.845 197.527C219.689 194.584 222.299 190.151 223.117 185.179C223.41 183.518 223.41 181.813 223.117 180.152C223.043 179.257 222.905 178.369 222.703 177.497C221.796 173.969 220.532 170.557 218.935 167.321L206.388 180.352C206.124 180.615 205.944 180.837 205.821 181.058V201.537C209.437 201.179 212.899 199.795 215.845 197.527ZM204.709 214.739C205.448 214.739 206.046 214.162 206.046 213.449V205.633C206.046 204.92 205.448 204.343 204.709 204.343H204.402C203.664 204.343 203.065 204.92 203.065 205.633V213.449C203.065 214.162 203.664 214.739 204.402 214.739H204.709ZM202.406 201.963C199.835 201.655 197.345 200.714 195.124 199.208C192.904 197.703 191.006 195.671 189.567 193.256C188.128 190.841 187.181 188.102 186.795 185.233C186.408 182.365 186.592 179.437 187.331 176.656L202.565 192.685C203.007 193.143 203.285 193.448 203.462 193.693V202.169L203.099 202.119C202.947 202.097 202.9 202.085 202.714 202.039C202.647 202.022 202.563 202.001 202.45 201.974L202.376 201.956L202.406 201.963Z" fill="white"/>
</svg>
