<?xml version="1.0" encoding="UTF-8"?>
<svg width="199px" height="59px" viewBox="0 0 199 59" version="1.1" xmlns="http://www.w3.org/2000/svg" xmlns:xlink="http://www.w3.org/1999/xlink">
    <title>979F1E36-D13F-4B59-A74F-BE02984F9B7C@3x</title>
    <defs>
        <linearGradient x1="60.9855998%" y1="4.9481245%" x2="26.6056023%" y2="71.9074222%" id="linearGradient-1">
            <stop stop-color="#00A0FF" offset="0%"></stop>
            <stop stop-color="#00A1FF" offset="1%"></stop>
            <stop stop-color="#00BEFF" offset="26%"></stop>
            <stop stop-color="#00D2FF" offset="51%"></stop>
            <stop stop-color="#00DFFF" offset="76%"></stop>
            <stop stop-color="#00E3FF" offset="100%"></stop>
        </linearGradient>
        <linearGradient x1="107.684729%" y1="50%" x2="-130.640394%" y2="50%" id="linearGradient-2">
            <stop stop-color="#FFE000" offset="0%"></stop>
            <stop stop-color="#FFBD00" offset="41%"></stop>
            <stop stop-color="#FFA500" offset="78%"></stop>
            <stop stop-color="#FF9C00" offset="100%"></stop>
        </linearGradient>
        <linearGradient x1="86.219293%" y1="30.8272855%" x2="-50.1497903%" y2="136.36593%" id="linearGradient-3">
            <stop stop-color="#FF3A44" offset="0%"></stop>
            <stop stop-color="#C31162" offset="100%"></stop>
        </linearGradient>
        <linearGradient x1="-18.7537448%" y1="-12.1036397%" x2="42.1210306%" y2="35.0292232%" id="linearGradient-4">
            <stop stop-color="#32A071" offset="0%"></stop>
            <stop stop-color="#2DA771" offset="7%"></stop>
            <stop stop-color="#15CF74" offset="48%"></stop>
            <stop stop-color="#06E775" offset="80%"></stop>
            <stop stop-color="#00F076" offset="100%"></stop>
        </linearGradient>
    </defs>
    <g id="ðŸŒ-Tentang-kami" stroke="none" stroke-width="1" fill="none" fill-rule="evenodd">
        <g id="01-agree-tentang-kami" transform="translate(-740.000000, -3177.000000)" fill-rule="nonzero">
            <g id="cara" transform="translate(-1.000000, 2671.000000)">
                <g id="Google-Play-Badge-US-2" transform="translate(741.000000, 506.000000)">
                    <rect id="Background-Black" fill="#000000" x="0" y="0" width="199" height="59" rx="10"></rect>
                    <path d="M191.62963,1.18 C195.048886,1.18 197.820741,3.95359597 197.820741,7.375 L197.820741,51.625 C197.820741,55.046404 195.048886,57.82 191.62963,57.82 L7.37037037,57.82 C3.95111412,57.82 1.17925926,55.046404 1.17925926,51.625 L1.17925926,7.375 C1.17925926,3.95359597 3.95111412,1.18 7.37037037,1.18 L191.62963,1.18 L191.62963,1.18 Z M191.62963,0 L7.37037037,0 C3.29982721,0 0,3.30189997 0,7.375 L0,51.625 C0,55.6981 3.29982721,59 7.37037037,59 L191.62963,59 C195.700173,59 199,55.6981 199,51.625 L199,7.375 C199,3.30189997 195.700173,0 191.62963,0 Z" id="Border-Gray" fill="#A6A6A6"></path>
                    <path d="M100.123598,31.9905528 C96.6735446,32.0067735 93.8883521,34.8112858 93.8991318,38.2581644 C93.9099743,41.705043 96.7127046,44.4920613 100.162792,44.4866876 C103.61288,44.4812984 106.406886,41.6855502 106.406924,38.2386547 C106.431164,36.5691233 105.775989,34.9612823 104.591462,33.7833959 C103.406936,32.6055095 101.794545,31.9584973 100.123598,31.9905528 L100.123598,31.9905528 Z M100.123598,42.0316201 C98.568552,42.1402713 97.1050604,41.2881893 96.4330953,39.8829156 C95.7611301,38.4776419 96.0172694,36.8048003 97.0790043,35.6644926 C98.1407393,34.5241849 99.792271,34.1481803 101.24369,34.7163175 C102.695109,35.2844547 103.651412,36.6812593 103.65521,38.2386547 C103.703097,39.2128763 103.355071,40.1651177 102.690109,40.8792894 C102.025147,41.5934611 101.099636,42.009004 100.123598,42.0316201 L100.123598,42.0316201 Z M86.4238877,31.9905528 C82.9718836,31.9986677 80.1793029,34.7996213 80.1847068,38.2484326 C80.1901264,41.6972439 82.9914836,44.489436 86.4434962,44.4867394 C89.8955088,44.4840388 92.6924889,41.6874703 92.6924985,38.2386547 C92.7167386,36.5691233 92.0615637,34.9612823 90.8770369,33.7833959 C89.6925101,32.6055095 88.0801199,31.9584973 86.4091726,31.9905528 L86.4238877,31.9905528 Z M86.4238877,42.0316201 C84.8680299,42.1463985 83.4002711,41.2985653 82.7235704,39.8941762 C82.0468698,38.4897871 82.2989986,36.814766 83.3592041,35.6713367 C84.4194096,34.5279074 86.0718412,34.1488642 87.525094,34.7157435 C88.9783468,35.2826229 89.9365486,36.6800122 89.9407843,38.2386547 C89.9886712,39.2128763 89.6406455,40.1651177 88.9756836,40.8792894 C88.3107218,41.5934611 87.3852102,42.009004 86.4091726,42.0316201 L86.4238877,42.0316201 Z M70.1048985,33.9164383 L70.1048985,36.5626933 L76.4617996,36.5626933 C76.3621249,37.8090849 75.8435389,38.9851845 74.9902947,39.8999148 C73.7042331,41.208671 71.9244779,41.913506 70.0901834,41.8405017 C66.1892728,41.8405017 63.02696,38.6811185 63.02696,34.7838219 C63.02696,30.8865253 66.1892728,27.7271421 70.0901834,27.7271421 C71.8821758,27.6979434 73.6126158,28.3799616 74.9020044,29.6236248 L76.7708156,27.7565449 C75.0122489,25.977465 72.6075139,24.9857016 70.1048985,25.0073801 C66.5423274,24.8688619 63.1894046,26.6887396 61.3668877,29.7501409 C59.5443708,32.8115422 59.5443708,36.6237889 61.3668877,39.6851902 C63.1894046,42.7465915 66.5423274,44.5664691 70.1048985,44.427951 C72.6531992,44.5429959 75.1267631,43.5512706 76.888536,41.7081889 C78.430196,40.0159407 79.2533078,37.7913806 79.1840836,35.5041913 C79.188832,34.9469903 79.1395517,34.3906396 79.0369331,33.8429313 L70.1048985,33.9164383 Z M136.778785,35.9746366 C135.993118,33.665353 133.862156,32.0803094 131.422507,31.9905416 C129.795558,31.9873748 128.239855,32.6571261 127.1248,33.8407754 C126.009744,35.0244246 125.4348,36.6163874 125.536488,38.2386547 C125.500349,39.89888 126.141518,41.5024108 127.312671,42.6807965 C128.483823,43.8591823 130.084259,44.5111004 131.746238,44.4867566 C133.837038,44.4980164 135.793823,43.4597826 136.955365,41.7228904 L134.821683,40.2527487 C134.173848,41.3317477 133.005635,41.9907017 131.746238,41.9875159 C130.441884,42.0371848 129.239738,41.285082 128.714938,40.0910332 L137.087801,36.6362003 L136.778785,35.9746366 Z M128.244057,38.0622377 C128.183801,37.1436407 128.496163,36.2394752 129.110724,35.553575 C129.725285,34.8676748 130.590313,34.4577763 131.510797,34.4162865 C132.481063,34.3524112 133.395893,34.8730338 133.835775,35.739414 L128.244057,38.0622377 Z M121.445704,44.1192212 L124.197418,44.1192212 L124.197418,25.7424509 L121.445704,25.7424509 L121.445704,44.1192212 Z M116.942899,33.3871874 L116.839894,33.3871874 C116.00108,32.450232 114.801944,31.9153991 113.543723,31.9170419 C110.203623,32.0788667 107.578738,34.8315715 107.578738,38.1724983 C107.578738,41.5134252 110.203623,44.26613 113.543723,44.427951 C114.806022,44.4491559 116.012931,43.9108563 116.839894,42.9578093 L116.928184,42.9578093 L116.928184,43.8545957 C116.928184,46.2509266 115.647975,47.5299498 113.587868,47.5299498 C112.184498,47.4971324 110.94023,46.6199813 110.438847,45.3100359 L108.040294,46.3097322 C108.963931,48.5543606 111.158753,50.0142808 113.587868,49.9998946 C116.810464,49.9998946 119.473887,48.103305 119.473887,43.4870603 L119.473887,32.3580882 L116.942899,32.3580882 L116.942899,33.3871874 Z M113.793879,42.0316201 C111.826311,41.8583783 110.317266,40.2120185 110.317266,38.2386547 C110.317266,36.2652909 111.826311,34.6189311 113.793879,34.4456893 C114.744647,34.4944356 115.635446,34.9246176 116.264314,35.6387041 C116.893182,36.3527906 117.206847,37.2902911 117.134195,38.2386547 C117.215326,39.1913791 116.902664,40.1357712 116.268906,40.8522544 C115.635148,41.5687376 114.73551,41.9948869 113.779164,42.0316201 L113.793879,42.0316201 Z M149.669168,25.7424509 L143.091541,25.7424509 L143.091541,44.1192212 L145.843255,44.1192212 L145.843255,37.1507499 L149.683883,37.1507499 C151.821514,37.3041795 153.865861,36.2517715 154.981492,34.4235975 C156.097122,32.5954235 156.097122,30.2977774 154.981492,28.4696034 C153.865861,26.6414294 151.821514,25.5890213 149.683883,25.7424509 L149.669168,25.7424509 Z M149.669168,34.5633007 L145.82854,34.5633007 L145.82854,28.3004973 L149.728028,28.3004973 C151.471247,28.3004973 152.884406,29.7123467 152.884406,31.4539511 C152.884406,33.1955556 151.471247,34.6074049 149.728028,34.6074049 L149.669168,34.5633007 Z M166.635619,31.9170457 C164.588333,31.7947872 162.663567,32.8977596 161.735508,34.7250162 L164.178206,35.739414 C164.670286,34.8333189 165.651366,34.3028733 166.679764,34.3868837 C167.385392,34.3045478 168.094548,34.5088615 168.647944,34.9539323 C169.201339,35.3990031 169.552581,36.0475187 169.622774,36.7538117 L169.622774,36.9449301 C168.738977,36.4774237 167.753363,36.2350357 166.753339,36.2392621 C164.119346,36.2392621 161.455922,37.7094037 161.455922,40.3703601 C161.508436,41.5166424 162.022805,42.5929636 162.882003,43.3544497 C163.741202,44.1159357 164.872165,44.4978307 166.017587,44.4132495 C167.429097,44.5145174 168.783382,43.8380025 169.549199,42.6490796 L169.637489,42.6490796 L169.637489,44.1192212 L172.286198,44.1192212 L172.286198,37.04784 C172.286198,33.8282298 169.8435,31.96115 166.709194,31.96115 L166.635619,31.9170457 Z M166.297173,41.9875159 C165.399555,41.9875159 164.148776,41.531772 164.148776,40.4291657 C164.148776,38.9590241 165.708571,38.4738774 167.091786,38.4738774 C167.965921,38.4523279 168.829825,38.6655653 169.593344,39.0913369 C169.403072,40.7370355 168.028433,41.9912508 166.370748,42.0316201 L166.297173,41.9875159 Z M181.93927,32.3580882 L178.790249,40.3262558 L178.701959,40.3262558 L175.435218,32.3580882 L172.492208,32.3580882 L177.39232,43.5017617 L174.59646,49.691058 L177.465895,49.691058 L185,32.3580882 L181.93927,32.3580882 Z M157.203273,44.1192212 L159.954987,44.1192212 L159.954987,25.7424509 L157.203273,25.7424509 L157.203273,44.1192212 Z" id="Google-Play" fill="#FFFFFF"></path>
                    <path d="M69.9102285,14.8541915 C69.9606114,15.9168355 69.5630371,16.9531937 68.8102795,17.7214323 C67.9691114,18.575588 66.7958824,19.0395399 65.5837623,18.9973545 C63.7246142,18.9831312 62.0553432,17.8808741 61.3477733,16.2002359 C60.6402034,14.5195976 61.0322253,12.5880999 62.3425792,11.2988128 C63.1939881,10.4491432 64.3673344,9.9820546 65.5837623,10.0085545 C66.2037781,10.0065351 66.8176645,10.1285031 67.3876787,10.3669596 C67.918374,10.5762016 68.3908088,10.9053651 68.7662815,11.3274852 L67.9889842,12.0873041 C67.3955203,11.3972688 66.5046174,11.0202459 65.5837623,11.0694336 C64.6581176,11.0649949 63.770576,11.429398 63.1257957,12.0786151 C62.4810154,12.7278322 62.134657,13.6058198 62.1665873,14.5101226 C62.1469377,15.8766348 62.970249,17.1205153 64.2534594,17.6630242 C65.5366699,18.2055331 67.0277645,17.9401249 68.0329821,16.9902859 C68.4842685,16.512226 68.7445509,15.8914177 68.7662815,15.241269 L65.5837623,15.241269 L65.5837623,14.2090623 L69.8515645,14.2090623 C69.8906833,14.4219752 69.9103156,14.637872 69.9102285,14.8541915 L69.9102285,14.8541915 Z M76.6272505,11.2701404 L72.667434,11.2701404 L72.667434,13.9940192 L76.2752669,13.9940192 L76.2752669,15.0262259 L72.667434,15.0262259 L72.667434,17.7501047 L76.6272505,17.7501047 L76.6272505,18.8109838 L71.4941551,18.8109838 L71.4941551,10.2092613 L76.6272505,10.2092613 L76.6272505,11.2701404 Z M81.4376943,18.8109838 L80.3084133,18.8109838 L80.3084133,11.2701404 L77.8445275,11.2701404 L77.8445275,10.2092613 L83.9602441,10.2092613 L83.9602441,11.2701404 L81.4376943,11.2701404 L81.4376943,18.8109838 Z M88.2720443,18.8109838 L88.2720443,10.2092613 L89.4013253,10.2092613 L89.4013253,18.8109838 L88.2720443,18.8109838 Z M94.4170928,18.8109838 L93.2878118,18.8109838 L93.2878118,11.2701404 L90.823926,11.2701404 L90.823926,10.2092613 L96.8663127,10.2092613 L96.8663127,11.2701404 L94.4170928,11.2701404 L94.4170928,18.8109838 Z M108.320449,17.6927599 C106.535583,19.4277673 103.65228,19.4277673 101.867414,17.6927599 C100.137222,15.9025033 100.137222,13.1034057 101.867414,11.313149 C102.720972,10.4726843 103.882397,10 105.093931,10 C106.305465,10 107.46689,10.4726843 108.320449,11.313149 C110.058024,13.1005294 110.058024,15.9053795 108.320449,17.6927599 L108.320449,17.6927599 Z M102.703376,16.9759497 C104.025256,18.2627173 106.162607,18.2627173 107.484487,16.9759497 C108.782718,15.5769815 108.782718,13.4432636 107.484487,12.0442955 C106.162607,10.7575278 104.025256,10.7575278 102.703376,12.0442955 C101.405145,13.4432636 101.405145,15.5769815 102.703376,16.9759497 L102.703376,16.9759497 Z M111.209648,18.8109838 L111.209648,10.2092613 L112.588251,10.2092613 L116.870719,16.9042687 L116.870719,10.2092613 L118,10.2092613 L118,18.8109838 L116.826721,18.8109838 L112.353595,11.80058 L112.353595,18.8109838 L111.209648,18.8109838 Z" id="GET-IT-ON" stroke="#FFFFFF" stroke-width="0.5" fill="#FFFFFF"></path>
                    <g id="Icon" transform="translate(14.000000, 11.000000)">
                        <path d="M1.37083333,0.789230769 C0.895511395,1.36085064 0.655599073,2.09262335 0.7,2.83538462 L0.7,35.1646154 C0.655599073,35.9073767 0.895511395,36.6391494 1.37083333,37.2107692 L1.47291667,37.3130769 L19.5416667,19.2192308 L19.5416667,18.7953846 L1.47291667,0.686923077 L1.37083333,0.789230769 Z" id="Shape" fill="url(#linearGradient-1)"></path>
                        <path d="M25.5208333,25.2553846 L19.5416667,19.2192308 L19.5416667,18.7953846 L25.5208333,12.7446154 L25.6520833,12.8176923 L32.8125,16.8953846 C34.8541667,18.05 34.8541667,19.95 32.8125,21.1192308 L25.68125,25.1823077 L25.5208333,25.2553846 Z" id="Shape" fill="url(#linearGradient-2)"></path>
                        <path d="M25.6958333,25.1676923 L19.5416667,19 L1.37083333,37.2107692 C2.22938002,37.9671481 3.50354224,38.0039836 4.40416667,37.2984615 L25.7104167,25.1676923" id="Shape" fill="url(#linearGradient-3)"></path>
                        <path d="M25.6958333,12.8323077 L4.38958333,0.701538462 C3.4889589,-0.00398358253 2.21479669,0.0328518762 1.35625,0.789230769 L19.5416667,19 L25.6958333,12.8323077 Z" id="Shape" fill="url(#linearGradient-4)"></path>
                        <path d="M25.5208333,25.0361538 L4.38958333,37.0938462 C3.52484786,37.7417994 2.33765214,37.7417994 1.47291667,37.0938462 L1.37083333,37.1961538 L1.47291667,37.2984615 C2.3360251,37.9513004 3.5264749,37.9513004 4.38958333,37.2984615 L25.6958333,25.1676923 L25.5208333,25.0361538 Z" id="Shape" fill="#000000" opacity="0.2"></path>
                        <path d="M1.37083333,37.0061538 C0.895511395,36.434534 0.655599073,35.7027613 0.7,34.96 L0.7,35.1792308 C0.655599073,35.921992 0.895511395,36.6537647 1.37083333,37.2253846 L1.47291667,37.1230769 L1.37083333,37.0061538 Z M32.8125,20.9 L25.5208333,25.0361538 L25.6520833,25.1676923 L32.8125,21.1046154 C33.6394773,20.7152808 34.1956831,19.9125841 34.2708333,19 C34.1046263,19.8255324 33.5660295,20.5272471 32.8125,20.9 Z" id="Shape" fill="#000000" opacity="0.12"></path>
                        <path d="M4.38958333,0.906153846 L32.8125,17.1 C33.5660295,17.4727529 34.1046263,18.1744676 34.2708333,19 C34.1956831,18.0874159 33.6394773,17.2847192 32.8125,16.8953846 L4.38958333,0.701538462 C2.34791667,-0.453076923 0.685416667,0.511538462 0.685416667,2.85 L0.685416667,3.06923077 C0.729166667,0.716153846 2.3625,-0.248461538 4.38958333,0.906153846 L4.38958333,0.906153846 Z" id="Shape" fill="#FFFFFF" opacity="0.25"></path>
                    </g>
                </g>
            </g>
        </g>
    </g>
</svg>