<svg width="64" height="64" viewBox="0 0 64 64" fill="none" xmlns="http://www.w3.org/2000/svg">
<path d="M52.231 0.0321636C49.5404 0.285234 47.4626 1.43071 44.7055 4.20117L43.0405 5.87943L50.5927 13.4316L58.1582 20.9971L59.1705 19.9981C61.7811 17.4274 62.8067 15.9756 63.5126 13.8711C63.9122 12.6724 63.9388 12.4992 63.9388 10.6079C63.9388 8.7298 63.9122 8.53001 63.5259 7.37121C62.9266 5.59972 62.1807 4.41428 60.7555 2.9891C59.6766 1.92353 59.3569 1.6971 58.1448 1.11104C57.3856 0.751417 56.4666 0.378471 56.0936 0.285234C55.148 0.0588036 53.3232 -0.0610714 52.231 0.0321636Z" fill="#428AC2"/>
<path d="M22.2888 26.6302L4.61377 44.3052L12.1793 51.8707L19.7314 59.4229L37.4197 41.7345L55.0947 24.0596L52.0579 21.0227L49.0343 17.9992L41.0426 25.9909C32.3849 34.6486 32.5048 34.5553 31.4126 34.2623C30.6667 34.0625 30.1206 33.5564 29.8542 32.8504C29.3747 31.5984 28.9485 32.1179 37.9259 23.1272L46.0374 15.0023L43.0006 11.9654L39.9771 8.94191L22.2888 26.6302Z" fill="#428AC2"/>
<path d="M1.09768 55.0818C0.285191 59.8236 -0.0477967 62.0746 0.00548131 62.4076C0.125357 63.0203 0.817971 63.7528 1.48395 63.9526C1.96345 64.0858 2.70934 63.9926 8.74308 62.9537C12.4459 62.3276 15.5627 61.7815 15.6692 61.7416C15.7891 61.7016 13.5647 59.384 9.14266 54.962C5.43984 51.2591 2.38967 48.2356 2.3364 48.2356C2.29644 48.2356 1.73702 51.3124 1.09768 55.0818Z" fill="#428AC2"/>
</svg>
