<svg width="64" height="64" viewBox="0 0 64 64" fill="none" xmlns="http://www.w3.org/2000/svg">
<path d="M31.968 0C14.304 0 0 14.336 0 32C0 49.664 14.304 64 31.968 64C49.664 64 64 49.664 64 32C64 14.336 49.664 0 31.968 0ZM42.304 49.248L32 43.04L21.696 49.248C20.48 49.984 18.976 48.896 19.296 47.52L22.016 35.808L12.96 27.968C11.904 27.04 12.48 25.28 13.888 25.152L25.856 24.128L30.528 13.088C31.072 11.776 32.928 11.776 33.472 13.088L38.144 24.096L50.112 25.12C51.52 25.248 52.096 27.008 51.008 27.936L41.952 35.776L44.672 47.52C44.992 48.896 43.52 49.984 42.304 49.248Z" fill="#FF9900"/>
</svg>
