<svg width="64" height="64" viewBox="0 0 64 64" fill="none" xmlns="http://www.w3.org/2000/svg">
<g clip-path="url(#clip0_1841_22799)">
<path d="M16.19 11.3392C7.77132 15.5423 0.741168 19.1199 0.55353 19.2951C-0.18451 19.9706 -0.18451 21.2215 0.55353 21.897C0.741168 22.0721 7.77132 25.6497 16.19 29.8528C28.524 36.0073 31.5888 37.4834 31.9765 37.4834C32.3643 37.4834 35.4291 36.0073 47.7631 29.8528C56.1818 25.6497 63.2119 22.0721 63.3996 21.897C64.1376 21.2215 64.1376 19.9706 63.3996 19.2951C63.2119 19.1199 56.1818 15.5423 47.7631 11.3392C35.4291 5.18474 32.3643 3.70866 31.9765 3.70866C31.5888 3.70866 28.524 5.18474 16.19 11.3392Z" fill="#79C87B"/>
<path d="M58.3463 28.8022L56.4949 29.7278V39.3974V49.0545L55.7819 49.4298C54.3559 50.1678 53.2175 51.6689 52.8798 53.22C52.8047 53.5828 52.7422 54.9213 52.7422 56.1972C52.7422 58.8867 52.8548 59.2995 53.7429 59.7498C54.2058 59.9875 54.4685 60 58.3713 60C62.2742 60 62.5369 59.9875 62.9997 59.7498C63.8879 59.2995 64.0004 58.8867 64.0004 56.1972C64.0004 54.9213 63.9379 53.5828 63.8628 53.22C63.5251 51.6689 62.3868 50.1678 60.9607 49.4298L60.2477 49.0545L60.2227 38.4717L60.1851 27.8765L58.3463 28.8022Z" fill="#79C87B"/>
<path d="M11.2486 34.3688C11.3112 37.1708 11.3612 37.5586 11.8616 38.8596C12.6372 40.8235 14.7137 43.2503 16.8402 44.6513C25.1338 50.0928 38.8188 50.0928 47.1124 44.6513C48.5009 43.7381 50.64 41.5866 51.3155 40.4232C51.8159 39.5476 52.2287 38.5969 52.5039 37.6712C52.6665 37.0707 52.8166 31.5417 52.6665 31.6293C52.6039 31.6543 48.3383 33.7808 43.172 36.3327C32.6893 41.5365 32.9145 41.449 31.0757 41.1362C30.2626 40.9986 29.0867 40.4482 20.7806 36.3327C15.6269 33.7808 11.3487 31.6543 11.2862 31.6293C11.2236 31.5917 11.2111 32.7926 11.2486 34.3688Z" fill="#79C87B"/>
</g>
<defs>
<clipPath id="clip0_1841_22799">
<rect width="64" height="64" fill="white"/>
</clipPath>
</defs>
</svg>
