<svg width="64" height="64" viewBox="0 0 64 64" fill="none" xmlns="http://www.w3.org/2000/svg">
<path d="M35.4412 0.157711C34.053 0.595432 33.065 1.45837 32.4521 2.73401L32.0645 3.54692V10.6755V17.8041L32.4772 18.642C32.9774 19.6675 33.9654 20.6055 34.9784 21.0182L35.6913 21.3059L44.5707 21.3684C51.9119 21.4184 53.5002 21.4559 53.7629 21.606C53.938 21.7061 55.5638 22.7816 57.3897 23.9947C59.2156 25.2078 60.8915 26.2959 61.1041 26.4209C61.9795 26.8712 63.055 26.571 63.6929 25.7081C63.9555 25.3579 63.9555 25.3204 63.9555 14.4524V3.54692L63.5678 2.73401C63.0676 1.68348 62.3172 0.933102 61.2917 0.445356L60.4537 0.0451546L48.1976 0.0201416C38.5427 0.00763512 35.8414 0.0326481 35.4412 0.157711Z" fill="#F26767"/>
<path d="M3.22469 5.55977C1.86151 5.97248 0.660902 7.1981 0.235688 8.61131C-0.0144376 9.3992 -0.0144377 9.73687 0.0105749 20.0796C0.0480938 30.6099 0.0480938 30.7349 0.310726 31.0726C0.798471 31.7229 1.19867 31.9355 1.97406 31.9355H2.69943L6.20119 29.5969C8.12716 28.3212 9.95308 27.1331 10.2532 26.9705L10.8035 26.6829L19.8706 26.6204C28.8751 26.5578 28.9376 26.5578 29.6755 26.2827C30.6385 25.9075 31.639 25.3072 32.1893 24.7444L32.627 24.2942L31.8266 23.7689C30.751 23.0561 29.6255 21.818 29.0252 20.6424C28.0372 18.7539 28.0747 19.0666 28.0247 11.8254L27.9872 5.35967L15.8936 5.37218C5.78848 5.37218 3.69993 5.40969 3.22469 5.55977Z" fill="#F26767"/>
<path d="M12.779 32.2354C9.91509 32.9358 7.65145 35.1744 6.90108 38.0384C6.63844 39.0514 6.63844 40.9523 6.90108 41.9653C7.98912 46.1049 12.1412 48.6937 16.3058 47.8183C19.2198 47.2055 21.746 44.7542 22.4214 41.8778C22.5339 41.4276 22.6215 40.5896 22.6215 40.0018C22.6215 37.7632 21.8961 36.0248 20.3078 34.424C19.5199 33.6236 19.0822 33.2985 18.2443 32.8858C16.4434 32.0103 14.605 31.7852 12.779 32.2354Z" fill="#F26767"/>
<path d="M47.634 32.1987C44.7701 32.8115 42.2438 35.2752 41.581 38.1267C41.4684 38.5769 41.3809 39.4148 41.3809 40.0026C41.3809 42.2412 42.1062 43.9796 43.6945 45.5804C44.8451 46.7435 46.2083 47.5064 47.6965 47.819C51.8611 48.6945 55.9757 46.1307 57.0888 41.9911C57.3639 40.9531 57.3764 39.0646 57.1013 38.0391C56.0007 33.8745 51.8361 31.2857 47.634 32.1987Z" fill="#F26767"/>
<path d="M6.42606 50.7203C5.72571 50.8203 4.68769 51.158 3.98733 51.5081C2.324 52.3461 0.885773 54.0344 0.335496 55.7978C0.0728642 56.6232 0.0478516 56.9359 0.0478516 59.7248C0.0478516 62.5762 0.0603579 62.7638 0.310484 63.089C0.448053 63.2766 0.723191 63.5517 0.910786 63.6893C1.24846 63.9519 1.34851 63.9519 14.5051 63.9894C27.4992 64.0144 27.7618 64.0144 28.237 63.7643C28.4997 63.6392 28.8624 63.3141 29.0124 63.0515C29.3001 62.5887 29.3126 62.5012 29.3126 59.6998C29.3126 57.086 29.2876 56.7483 29.0374 55.9479C28.2996 53.6342 26.4611 51.7708 24.1225 50.9704C23.3221 50.7077 23.2095 50.6952 15.0554 50.6827C10.5156 50.6702 6.63867 50.6827 6.42606 50.7203Z" fill="#F26767"/>
<path d="M40.881 50.7578C38.1922 51.1705 35.816 53.2465 34.9656 55.9479C34.7154 56.7483 34.6904 57.086 34.6904 59.6998C34.6904 62.5012 34.7029 62.5887 34.9906 63.0515C35.1407 63.3141 35.5033 63.6392 35.766 63.7643C36.2412 64.0144 36.5038 64.0144 49.4979 63.9894C62.6545 63.9519 62.7546 63.9519 63.0922 63.6893C63.9301 63.064 63.9552 63.0014 63.9927 60.0875C64.0177 58.0614 63.9802 57.211 63.8426 56.4982C63.3173 53.9844 61.4789 51.9334 58.9526 51.0454L57.9521 50.6952L49.7605 50.6702C45.2582 50.6702 41.2562 50.7077 40.881 50.7578Z" fill="#F26767"/>
</svg>
