<svg width="33" height="64" viewBox="0 0 33 64" fill="none" xmlns="http://www.w3.org/2000/svg">
<path d="M32.881 27.7189V3.28834C32.881 1.47989 31.4013 0.000244141 29.5929 0.000244141H3.28809C1.47964 0.000244141 0 1.47989 0 3.28834V27.7189C0 28.8697 0.591856 29.9548 1.61117 30.5467L15.3554 38.7998L12.1002 46.4939L4.80062 47.1187C3.28809 47.2502 2.69624 49.0586 3.81419 50.0122L9.37107 54.8128L7.69414 61.9808C7.36533 63.3947 8.91074 64.5127 10.1602 63.7564L16.4405 59.9422L22.7207 63.7235C23.9702 64.4798 25.5156 63.3618 25.1868 61.948L23.5099 54.7799L29.0668 49.9793C30.1518 49.0257 29.5929 47.2173 28.1132 47.0858L20.8136 46.461L17.5584 38.7669L31.3027 30.5138C32.2891 29.9548 32.881 28.9026 32.881 27.7189ZM19.7286 33.6375L16.4405 35.6103L13.1524 33.6375V3.28834H19.7286V33.6375Z" fill="#79C87B"/>
</svg>
