<svg width="64" height="64" viewBox="0 0 64 64" fill="none" xmlns="http://www.w3.org/2000/svg">
<circle cx="32" cy="32.0002" r="32" fill="#FCCF46"/>
<path d="M22.1062 19.0002C24.0079 19.0002 25.575 19.2295 26.8078 19.6881C28.05 20.1466 28.9722 20.8392 29.5742 21.7659C30.1762 22.6925 30.4772 23.8627 30.4772 25.2766C30.4772 26.2319 30.2957 27.0678 29.9325 27.7843C29.5694 28.5008 29.0916 29.1074 28.4992 29.6041C27.9067 30.1009 27.2664 30.5069 26.5784 30.8221L32.742 39.9501H27.8111L22.8086 31.9112H20.4435V39.9501H16V19.0002H22.1062ZM21.7909 22.64H20.4435V28.3001H21.8769C23.3485 28.3001 24.3997 28.0565 25.0304 27.5693C25.6706 27.0726 25.9907 26.3465 25.9907 25.3912C25.9907 24.3977 25.6467 23.6908 24.9587 23.2705C24.2802 22.8501 23.2243 22.64 21.7909 22.64Z" fill="white"/>
<path d="M43.9511 23.6287C45.7572 23.6287 47.2144 24.3308 48.3229 25.7351C49.441 27.1394 50 29.1981 50 31.9112C50 33.7263 49.7372 35.2548 49.2116 36.4967C48.6861 37.729 47.9598 38.6604 47.0329 39.2909C46.106 39.9214 45.0405 40.2367 43.8364 40.2367C43.0624 40.2367 42.3983 40.1412 41.844 39.9501C41.2898 39.7495 40.8168 39.4963 40.425 39.1906C40.0332 38.8754 39.6939 38.541 39.4073 38.1876H39.1779C39.2544 38.5697 39.3117 38.9613 39.3499 39.3626C39.3881 39.7638 39.4073 40.1555 39.4073 40.5376V47.0002H35.0354V23.9296H38.5902L39.2066 26.0074H39.4073C39.6939 25.5775 40.0427 25.1811 40.4536 24.8181C40.8645 24.455 41.3567 24.1684 41.93 23.9583C42.5129 23.7386 43.1866 23.6287 43.9511 23.6287ZM42.5464 27.1251C41.7819 27.1251 41.1751 27.2827 40.726 27.598C40.2768 27.9132 39.9472 28.3861 39.7369 29.0166C39.5363 29.6471 39.4264 30.4448 39.4073 31.4097V31.8825C39.4073 32.9143 39.5028 33.7884 39.6939 34.5049C39.8946 35.2213 40.2243 35.7659 40.683 36.1384C41.1512 36.511 41.7915 36.6973 42.6037 36.6973C43.2726 36.6973 43.8221 36.511 44.2521 36.1384C44.6821 35.7659 45.0022 35.2213 45.2125 34.5049C45.4323 33.7788 45.5422 32.8952 45.5422 31.8539C45.5422 30.2872 45.2985 29.1074 44.8111 28.3145C44.3238 27.5216 43.5689 27.1251 42.5464 27.1251Z" fill="white"/>
</svg>
