<svg width="64" height="64" viewBox="0 0 64 64" fill="none" xmlns="http://www.w3.org/2000/svg">
<g clip-path="url(#clip0_1841_21629)">
<path d="M62.933 18.1342H59.733V43.7342C59.733 45.4942 58.293 46.9342 56.533 46.9342H18.133V50.1342C18.133 53.6542 21.013 56.5342 24.533 56.5342H56.533L69.333 69.3342V24.5342C69.333 21.0142 66.453 18.1342 62.933 18.1342ZM53.333 34.1342V11.7342C53.333 8.21423 50.453 5.33423 46.933 5.33423H11.733C8.21301 5.33423 5.33301 8.21423 5.33301 11.7342V53.3342L18.133 40.5342H46.933C50.453 40.5342 53.333 37.6542 53.333 34.1342Z" fill="#4DAEDF"/>
</g>
<defs>
<clipPath id="clip0_1841_21629">
<rect width="64" height="64" fill="white" transform="translate(0 0.000244141)"/>
</clipPath>
</defs>
</svg>
