<?xml version="1.0" encoding="UTF-8"?>
<svg width="285px" height="234px" viewBox="0 0 285 234" version="1.1" xmlns="http://www.w3.org/2000/svg" xmlns:xlink="http://www.w3.org/1999/xlink">
    <title>39FC7192-BE15-45EF-809F-EC6EB05F9E00</title>
    <defs>
        <rect id="path-1" x="0" y="0" width="1090" height="234" rx="10"></rect>
        <filter x="-0.7%" y="-3.2%" width="101.4%" height="106.4%" filterUnits="objectBoundingBox" id="filter-3">
            <feOffset dx="0" dy="0" in="SourceAlpha" result="shadowOffsetOuter1"></feOffset>
            <feGaussianBlur stdDeviation="2.5" in="shadowOffsetOuter1" result="shadowBlurOuter1"></feGaussianBlur>
            <feColorMatrix values="0 0 0 0 0   0 0 0 0 0   0 0 0 0 0  0 0 0 0.05 0" type="matrix" in="shadowBlurOuter1"></feColorMatrix>
        </filter>
    </defs>
    <g id="ðŸ-Agree-dtp-penjual" stroke="none" stroke-width="1" fill="none" fill-rule="evenodd">
        <g id="01-agreelanding-dashboard-penjual" transform="translate(-1105.000000, -100.000000)">
            <g id="Group-10" transform="translate(300.000000, 100.000000)">
                <mask id="mask-2" fill="white">
                    <use xlink:href="#path-1"></use>
                </mask>
                <g id="Mask">
                    <use fill="black" fill-opacity="1" filter="url(#filter-3)" xlink:href="#path-1"></use>
                    <use fill="#FFFFFF" fill-rule="evenodd" xlink:href="#path-1"></use>
                </g>
                <g id="image/design/lightgreen" mask="url(#mask-2)">
                    <g transform="translate(805.000000, -94.000000)">
                        <g id="image/design/lightgreen" opacity="0.5">
                            <circle id="Oval" fill="#69BA07" opacity="0.3" cx="211" cy="211" r="211"></circle>
                            <ellipse id="Oval" fill="#69BA07" opacity="0.3" cx="211.497642" cy="212" rx="134.860849" ry="135"></ellipse>
                            <ellipse id="Oval" fill="#69BA07" opacity="0.3" cx="211.497642" cy="210.5" rx="175.667453" ry="175.5"></ellipse>
                            <ellipse id="Oval" fill="#69BA07" opacity="0.3" cx="210.004717" cy="209.5" rx="61.7075472" ry="61.5"></ellipse>
                            <ellipse id="Oval" fill="#69BA07" opacity="0.3" cx="211.035377" cy="212" rx="98.0353774" ry="98"></ellipse>
                        </g>
                        <g id="icon/beranda-copy-7" transform="translate(179.000000, 180.000000)" fill="#FFFFFF" fill-rule="nonzero">
                            <path d="M38.8114105,10.6666667 C39.7921759,10.6666667 40.8298637,11.8246425 40.9182434,12.8332759 L40.9243165,12.9697683 L40.9233333,15.1976667 L47.8525223,15.2927223 C48.5114348,15.2927223 49.4667288,15.8759645 49.8438052,16.470657 L49.9112518,16.5895788 L54.1558555,24.2549979 C54.4377314,24.8198898 55.6833198,27.0365424 57.8926212,30.9049558 C58.3656489,31.785485 58.6218724,32.4801257 58.6612913,32.988878 L58.6666667,33.1230198 L58.6666667,44.4345077 C58.6666667,45.4200973 58.2453196,46.2832776 57.3240791,46.3671316 L57.1744544,46.3737996 L52.0556244,46.3747914 C51.6129017,50.2911664 48.3191321,53.3333333 44.3216019,53.3333333 C40.3970653,53.3333333 37.1508232,50.4012501 36.61467,46.5884392 L27.5625851,46.5884392 C27.0264319,50.4012501 23.7801898,53.3333333 19.8556532,53.3333333 C15.9311166,53.3333333 12.6848745,50.4012501 12.1487213,46.5884392 L7.59009468,46.5887531 C6.42886805,46.6045432 5.33333333,45.0458962 5.33333333,44.3592023 L5.33333333,12.9571273 L5.37142367,12.9568269 C5.34645149,12.8130385 5.33333333,12.6739815 5.33333333,12.5439802 C5.33333333,11.5559205 6.08783878,10.7471006 7.04542858,10.6723106 L7.19052126,10.6666667 L38.8114105,10.6666667 Z M19.8556532,42.1053813 C18.0130845,42.1053813 16.5193875,43.6134589 16.5193875,45.4737669 C16.5193875,47.3340749 18.0130845,48.8421525 19.8556532,48.8421525 C21.6982219,48.8421525 23.191919,47.3340749 23.191919,45.4737669 C23.191919,43.6134589 21.6982219,42.1053813 19.8556532,42.1053813 Z M44.3216019,42.1053813 C42.4790332,42.1053813 40.9853362,43.6134589 40.9853362,45.4737669 C40.9853362,47.3340749 42.4790332,48.8421525 44.3216019,48.8421525 C46.1641706,48.8421525 47.6578676,47.3340749 47.6578676,45.4737669 C47.6578676,43.6134589 46.1641706,42.1053813 44.3216019,42.1053813 Z M36.5932469,15.188659 L9.84633333,15.1876667 L9.84633333,42.1296667 L12.8087273,42.129811 C14.0531397,39.4612964 16.7407472,37.6142006 19.8556532,37.6142006 C22.9705593,37.6142006 25.6581668,39.4612964 26.9025792,42.129811 L37.274676,42.129811 C38.5190884,39.4612964 41.2066959,37.6142006 44.3216019,37.6142006 C47.4485979,37.6142006 50.1449719,39.4756625 51.3829524,42.1609201 L54.4067553,42.161476 L54.4067553,33.1230198 L51.8274841,28.5202331 L38.1599639,28.5202331 C37.1834443,28.5202331 36.5948695,27.5374691 36.5410291,26.549613 L36.5369819,26.4015186 L36.5932469,15.188659 Z M28,28 C29.4727593,28 30.6666667,29.1939073 30.6666667,30.6666667 C30.6666667,32.0342289 29.6372262,33.1613524 28.3109897,33.3153927 L28,33.3333333 L25.3333333,33.3333333 C23.860574,33.3333333 22.6666667,32.139426 22.6666667,30.6666667 C22.6666667,29.2991044 23.6961072,28.1719809 25.0223437,28.0179406 L25.3333333,28 L28,28 Z M28,20 C29.4727593,20 30.6666667,21.1939073 30.6666667,22.6666667 C30.6666667,24.0342289 29.6372262,25.1613524 28.3109897,25.3153927 L28,25.3333333 L17.3333333,25.3333333 C15.860574,25.3333333 14.6666667,24.139426 14.6666667,22.6666667 C14.6666667,21.2991044 15.6961072,20.1719809 17.0223437,20.0179406 L17.3333333,20 L28,20 Z M46.6696657,19.5530323 L40.9233333,19.5526667 L40.9243165,24.2549979 L49.3743333,24.2546667 L46.6696657,19.5530323 Z" id="icon/pengiriman/light"></path>
                        </g>
                    </g>
                </g>
            </g>
        </g>
    </g>
</svg>