<svg width="431" height="422" viewBox="0 0 431 422" fill="none" xmlns="http://www.w3.org/2000/svg">
<g opacity="0.5">
<ellipse opacity="0.3" cx="215.789" cy="211" rx="214.872" ry="211" fill="#FF9900"/>
<ellipse opacity="0.3" cx="216.807" cy="212" rx="137.477" ry="135" fill="#FF9900"/>
<ellipse opacity="0.3" cx="216.298" cy="210.5" rx="178.72" ry="175.5" fill="#FF9900"/>
<ellipse opacity="0.3" cx="214.262" cy="209.5" rx="62.6284" ry="61.5" fill="#FF9900"/>
<ellipse opacity="0.3" cx="215.789" cy="212" rx="99.7982" ry="98" fill="#FF9900"/>
</g>
<path d="M201.251 227C198.318 227 195.944 229.4 195.944 232.333C195.944 235.267 198.318 237.667 201.251 237.667C204.184 237.667 206.584 235.267 206.584 232.333C206.584 229.4 204.184 227 201.251 227ZM185.251 184.333V189.667H190.584L200.184 209.907L196.584 216.44C196.158 217.187 195.918 218.067 195.918 219C195.918 221.933 198.318 224.333 201.251 224.333H233.251V219H202.371C201.998 219 201.704 218.707 201.704 218.333L201.784 218.013L204.184 213.667H224.051C226.051 213.667 227.811 212.573 228.718 210.92L238.264 193.613C238.478 193.24 238.584 192.787 238.584 192.333C238.584 190.867 237.384 189.667 235.918 189.667H196.478L193.971 184.333H185.251ZM227.918 227C224.984 227 222.611 229.4 222.611 232.333C222.611 235.267 224.984 237.667 227.918 237.667C230.851 237.667 233.251 235.267 233.251 232.333C233.251 229.4 230.851 227 227.918 227Z" fill="#212121"/>
</svg>
