<?xml version="1.0" encoding="UTF-8"?>
<svg width="240px" height="150px" viewBox="0 0 240 150" version="1.1" xmlns="http://www.w3.org/2000/svg" xmlns:xlink="http://www.w3.org/1999/xlink">
    <title>D0EFE7C9-58F2-4EF8-AA83-BA262826E7E0</title>
    <defs>
        <rect id="path-1" x="0" y="0" width="1090" height="150" rx="10"></rect>
        <filter x="-0.7%" y="-5.0%" width="101.4%" height="110.0%" filterUnits="objectBoundingBox" id="filter-3">
            <feOffset dx="0" dy="0" in="SourceAlpha" result="shadowOffsetOuter1"></feOffset>
            <feGaussianBlur stdDeviation="2.5" in="shadowOffsetOuter1" result="shadowBlurOuter1"></feGaussianBlur>
            <feColorMatrix values="0 0 0 0 0   0 0 0 0 0   0 0 0 0 0  0 0 0 0.05 0" type="matrix" in="shadowBlurOuter1"></feColorMatrix>
        </filter>
    </defs>
    <g id="ðŸŒ-Agree-landingpage-dtp-dashboard" stroke="none" stroke-width="1" fill="none" fill-rule="evenodd">
        <g id="01-agreelanding-dashboard-beranda" transform="translate(-1150.000000, -100.000000)">
            <g id="container" transform="translate(300.000000, 100.000000)">
                <mask id="mask-2" fill="white">
                    <use xlink:href="#path-1"></use>
                </mask>
                <g id="Mask">
                    <use fill="black" fill-opacity="1" filter="url(#filter-3)" xlink:href="#path-1"></use>
                    <use fill="#FFFFFF" fill-rule="evenodd" xlink:href="#path-1"></use>
                </g>
                <g id="image/design/green" mask="url(#mask-2)">
                    <g transform="translate(855.000000, -98.000000)">
                        <g id="image/design/green" opacity="0.5">
                            <circle id="Oval" fill="#2A844E" opacity="0.3" cx="173" cy="173" r="173"></circle>
                            <ellipse id="Oval" fill="#2A844E" opacity="0.3" cx="173.408019" cy="173.819905" rx="110.573113" ry="110.687204"></ellipse>
                            <ellipse id="Oval" fill="#2A844E" opacity="0.3" cx="173.408019" cy="172.590047" rx="144.03066" ry="143.893365"></ellipse>
                            <ellipse id="Oval" fill="#2A844E" opacity="0.3" cx="172.183962" cy="171.770142" rx="50.5943396" ry="50.4241706"></ellipse>
                            <ellipse id="Oval" fill="#2A844E" opacity="0.3" cx="173.029006" cy="173.819905" rx="80.379717" ry="80.3507109"></ellipse>
                        </g>
                        <g id="icon/gedung/light" transform="translate(146.763033, 147.582938)" fill="#FFFFFF" fill-rule="nonzero">
                            <path d="M8.50928654,48.1011058 C6.29401083,48.1011058 4.48546474,46.3596893 4.37789011,44.1710981 L4.3728278,43.9646471 L4.3728278,8.50928654 C4.3728278,6.29401083 6.11424433,4.48546474 8.30283553,4.37789011 L8.50928654,4.3728278 L29.7825029,4.3728278 C31.9977786,4.3728278 33.8063247,6.11424433 33.9138993,8.30283553 L33.9189616,8.50928654 L33.9194853,20.9604777 C34.0480389,20.9421063 34.1784986,20.9296457 34.3105805,20.9233799 L34.5098843,20.9186627 L43.9646471,20.9186627 C46.1799228,20.9186627 47.9884689,22.6600793 48.0960435,24.8486705 L48.1011058,25.0551215 L48.1011058,43.9646471 C48.1011058,46.1799228 46.3596893,47.9884689 44.1710981,48.0960435 L43.9646471,48.1011058 L34.5098843,48.1011058 C34.3094349,48.1011058 34.1123156,48.0868479 33.9194853,48.0592909 L33.9189616,48.1011058 L8.50928654,48.1011058 Z M29.7825029,7.91836386 L8.50928654,7.91836386 C8.21556471,7.91836386 7.97189481,8.13266159 7.92609804,8.41343581 L7.91836386,8.50928654 L7.91836386,43.9646471 C7.91836386,44.2583689 8.13266159,44.5020388 8.41343581,44.5478356 L8.50928654,44.5555698 L11.4638278,44.5548278 L11.4638999,39.2372657 C11.4638999,37.02199 13.2053164,35.2134439 15.3939076,35.1058693 L15.6003587,35.100807 L22.6914308,35.100807 C24.9759338,35.100807 26.8278895,36.9527626 26.8278895,39.2372657 L26.8278895,39.2372657 L26.8278278,44.5548278 L30.3734256,44.5555698 L30.3734256,8.50928654 C30.3734256,8.26063314 30.2198458,8.04785022 30.0023696,7.96062101 L29.917996,7.93397055 L29.7825029,7.91836386 Z M43.9646471,24.4641988 L34.5098843,24.4641988 C34.2161625,24.4641988 33.9724926,24.6784965 33.9266958,24.9592707 L33.9189616,25.0551215 L33.9189616,43.9646471 C33.9189616,44.2583689 34.1332593,44.5020388 34.4140336,44.5478356 L34.5098843,44.5555698 L43.9646471,44.5555698 C44.2583689,44.5555698 44.5020388,44.3412721 44.5478356,44.0604978 L44.5555698,43.9646471 L44.5555698,25.0551215 C44.5555698,24.7287639 44.2910047,24.4641988 43.9646471,24.4641988 Z M22.6914308,38.646343 L15.6003587,38.646343 C15.2740011,38.646343 15.009436,38.9109081 15.009436,39.2372657 L15.009436,39.2372657 L15.009436,44.5555698 L23.2823534,44.5555698 L23.2823534,39.2372657 C23.2823534,38.9575306 23.0879791,38.7231941 22.8269239,38.6619497 L22.8269239,38.6619497 L22.6914308,38.646343 Z M40.4191111,36.2826523 C41.3981838,36.2826523 42.1918791,37.0763476 42.1918791,38.0554203 C42.1918791,38.9529037 41.5249546,39.6946185 40.6596652,39.8120051 L40.4191111,39.8281884 L38.0554203,39.8281884 C37.0763476,39.8281884 36.2826523,39.0344931 36.2826523,38.0554203 C36.2826523,37.157937 36.9495768,36.4162222 37.8148662,36.2988356 L38.0554203,36.2826523 L40.4191111,36.2826523 Z M40.4191111,29.1915802 C41.3981838,29.1915802 42.1918791,29.9852755 42.1918791,30.9643482 C42.1918791,31.8618316 41.5249546,32.6035464 40.6596652,32.720933 L40.4191111,32.7371163 L38.0554203,32.7371163 C37.0763476,32.7371163 36.2826523,31.943421 36.2826523,30.9643482 C36.2826523,30.0668649 36.9495768,29.3251501 37.8148662,29.2077635 L38.0554203,29.1915802 L40.4191111,29.1915802 Z M26.2369668,26.8278895 C27.2160396,26.8278895 28.0097349,27.6215848 28.0097349,28.6006575 C28.0097349,29.4981409 27.3428103,30.2398557 26.4775209,30.3572423 L26.2369668,30.3734256 L12.0548226,30.3734256 C11.0757498,30.3734256 10.2820546,29.5797303 10.2820546,28.6006575 C10.2820546,27.7031742 10.9489791,26.9614594 11.8142685,26.8440728 L12.0548226,26.8278895 L26.2369668,26.8278895 Z M26.2369668,19.7368174 C27.2160396,19.7368174 28.0097349,20.5305127 28.0097349,21.5095854 C28.0097349,22.4070688 27.3428103,23.1487836 26.4775209,23.2661702 L26.2369668,23.2823534 L12.0548226,23.2823534 C11.0757498,23.2823534 10.2820546,22.4886582 10.2820546,21.5095854 C10.2820546,20.6121021 10.9489791,19.8703873 11.8142685,19.7530007 L12.0548226,19.7368174 L26.2369668,19.7368174 Z M26.2369668,12.6457453 C27.2160396,12.6457453 28.0097349,13.4394406 28.0097349,14.4185133 C28.0097349,15.3159967 27.3428103,16.0577114 26.4775209,16.175098 L26.2369668,16.1912813 L12.0548226,16.1912813 C11.0757498,16.1912813 10.2820546,15.397586 10.2820546,14.4185133 C10.2820546,13.5210299 10.9489791,12.7793152 11.8142685,12.6619286 L12.0548226,12.6457453 L26.2369668,12.6457453 Z"></path>
                        </g>
                    </g>
                </g>
            </g>
        </g>
    </g>
</svg>