<?xml version="1.0" encoding="UTF-8"?>
<svg width="72px" height="72px" viewBox="0 0 72 72" version="1.1" xmlns="http://www.w3.org/2000/svg" xmlns:xlink="http://www.w3.org/1999/xlink">
    <title>D38480D7-1A75-4F6D-AC50-9FDF54B9E1DD@2x</title>
    <defs>
        <rect id="path-1" x="0" y="0" width="60" height="60" rx="8"></rect>
        <filter x="-13.3%" y="-13.3%" width="126.7%" height="126.7%" filterUnits="objectBoundingBox" id="filter-2">
            <feMorphology radius="0.5" operator="dilate" in="SourceAlpha" result="shadowSpreadOuter1"></feMorphology>
            <feOffset dx="0" dy="0" in="shadowSpreadOuter1" result="shadowOffsetOuter1"></feOffset>
            <feGaussianBlur stdDeviation="2.5" in="shadowOffsetOuter1" result="shadowBlurOuter1"></feGaussianBlur>
            <feComposite in="shadowBlurOuter1" in2="SourceAlpha" operator="out" result="shadowBlurOuter1"></feComposite>
            <feColorMatrix values="0 0 0 0 0   0 0 0 0 0   0 0 0 0 0  0 0 0 0.05 0" type="matrix" in="shadowBlurOuter1"></feColorMatrix>
        </filter>
        <polygon id="path-3" points="0 0 18.7114094 0 18.7114094 25.7852349 0 25.7852349"></polygon>
        <polygon id="path-5" points="0 0 22.1342282 0 22.1342282 32.6308725 0 32.6308725"></polygon>
    </defs>
    <g id="ðŸŒ-Agree-landingpage" stroke="none" stroke-width="1" fill="none" fill-rule="evenodd">
        <g id="04-agreelanding-megamenu" transform="translate(-700.000000, -219.000000)">
            <g id="menu" transform="translate(120.000000, 85.002066)">
                <g id="Group-6" transform="translate(586.000000, 140.000000)">
                    <g id="Rectangle-Copy-9">
                        <use fill="black" fill-opacity="1" filter="url(#filter-2)" xlink:href="#path-1"></use>
                        <use stroke="#F3F3F3" stroke-width="1" fill="#FFFFFF" fill-rule="evenodd" xlink:href="#path-1"></use>
                    </g>
                    <g id="logo/gram/agreepedia" transform="translate(13.000000, 13.682498)">
                        <g id="Group-3" transform="translate(15.288591, 7.073826)">
                            <mask id="mask-4" fill="white">
                                <use xlink:href="#path-3"></use>
                            </mask>
                            <g id="Clip-2"></g>
                            <path d="M18.7009878,0.0103562038 C18.7009878,0.0103562038 13.6926206,-0.147813768 8.36677731,0.772123197 C10.7071215,4.07430403 12.760598,7.93909375 12.760598,11.3392379 C12.760598,19.246546 7.78913078,25.6563416 1.65675896,25.6563416 C1.09356635,25.6563416 0.540576491,25.6014073 0,25.4971512 C4.27019718,26.5046769 9.56798283,24.8510353 13.5926335,20.8256946 C19.1828984,15.2344711 18.7009878,0.0103562038 18.7009878,0.0103562038" id="Fill-1" fill="#AFF095" mask="url(#mask-4)"></path>
                        </g>
                        <g id="Group-6" transform="translate(5.932886, 0.000000)">
                            <mask id="mask-6" fill="white">
                                <use xlink:href="#path-5"></use>
                            </mask>
                            <g id="Clip-5"></g>
                            <path d="M17.0425833,19.5370488 C16.7760777,21.2284828 15.9259648,22.7359593 14.6740898,23.736964 C13.7144358,24.5084422 12.5869634,24.9789296 11.409396,25.1006711 L11.409396,18.1353395 C11.449472,18.0601759 11.5079162,17.9848441 11.5939127,17.8953876 L15.6804991,13.4630872 C16.2006526,14.5639739 16.6120999,15.724386 16.9076606,16.9241456 C16.9732851,17.2209327 17.0182037,17.5227643 17.0425833,17.8271182 C17.1379308,18.3921065 17.1379308,18.9720604 17.0425833,19.5370488 L17.0425833,19.5370488 Z M11.409396,29.4396489 C11.409396,29.689832 11.2260608,29.8926174 10.9998742,29.8926174 L10.9060091,29.8926174 C10.6799795,29.8926174 10.4966443,29.689832 10.4966443,29.4396489 L10.4966443,26.6945793 C10.4966443,26.4443962 10.6799795,26.2416107 10.9060091,26.2416107 L10.9998742,26.2416107 C11.2260608,26.2416107 11.409396,26.4443962 11.409396,26.6945793 L11.409396,29.4396489 Z M10.1535044,25.2589603 C9.31871364,25.1542802 8.51006217,24.834191 7.78898547,24.3225524 C7.06790876,23.8110817 6.451722,23.1203276 5.98437905,22.2995214 C5.51703611,21.4788832 5.20952545,20.5480201 5.084157,19.5731343 C4.95862206,18.5980804 5.01822618,17.6028634 5.25830759,16.6577181 L10.2051169,22.1054516 C10.3486329,22.2612115 10.4390381,22.3647154 10.4966443,22.4482242 L10.4966443,25.3288591 L10.378768,25.3118885 C10.3116717,25.3016389 10.3075094,25.2979423 10.1679892,25.2626569 L10.1440143,25.2564399 L10.1535044,25.2589603 Z M7.81400529,10.7248322 L10.4966443,13.5668066 L10.4966443,20.7651007 L5.47651007,15.3704446 C6.06653431,13.7106149 6.85283677,12.1478307 7.81400529,10.7248322 L7.81400529,10.7248322 Z M10.4966443,7.0738255 L10.4966443,12.5503356 L8.44295302,10.1418261 C9.07709611,9.06870076 9.7636424,8.04495183 10.4966443,7.0738255 L10.4966443,7.0738255 Z M11.4340401,6.84563758 C12.8826638,8.58505571 14.1738775,10.4810469 15.2885906,12.5059905 L11.409396,16.6577181 L11.4340401,6.84563758 Z M11.0671988,0 C11.0671988,0 0,10.4186255 0,18.3214959 C0,26.2245363 4.9549866,32.6308725 11.0671988,32.6308725 C17.1792416,32.6308725 22.1342282,26.2245363 22.1342282,18.3214959 C22.1342282,10.4186255 11.0671988,0 11.0671988,0 L11.0671988,0 Z" id="Fill-4" fill="#8CE79B" mask="url(#mask-6)"></path>
                        </g>
                        <path d="M17.0548054,32.7303363 C10.9223779,32.7303363 5.95069544,26.3203284 5.95069544,18.4131382 C5.95069544,15.0129716 8.00419057,11.1479863 10.3448961,7.84595379 C5.01883444,6.92601076 0.0104217121,7.08418178 0.0104217121,7.08418178 C0.0104217121,7.08418178 -0.47149326,22.308227 5.11882245,27.8994874 C9.14350966,31.9248547 14.4415135,33.5785071 18.7114094,32.5709748 C18.170828,32.6752316 17.6180032,32.7303363 17.0548054,32.7303363" id="Fill-7" fill="#DFFD8C"></path>
                    </g>
                </g>
            </g>
        </g>
    </g>
</svg>